<svg width="25" height="26" viewBox="0 0 25 26" fill="none" xmlns="http://www.w3.org/2000/svg">
<rect width="25" height="26" rx="5" fill="#94CA42"/>
<path d="M8 21H18M11 21C16.5 18.5 11.8 14.6 14 11M14 11C13.9541 9.58615 14.3376 8.19156 15.1 7C16 6 17.3 5.1 20 5C19.9 7.3 19.3 8.6 18.3 9.6C17.3 10.4 15.9 10.9 14 11ZM10.5 10.4C11.6 11.2 12.3 12.6 12.8 14.1C10.8 14.5 9.3 14.5 8 13.8C6.8 13.2 5.7 11.9 5 9.6C7.8 9.1 9.4 9.6 10.5 10.4Z" stroke="white" stroke-width="2" stroke-linecap="round" stroke-linejoin="round"/>
</svg>
