<svg width="66" height="60" viewBox="0 0 66 60" fill="none" xmlns="http://www.w3.org/2000/svg">
    <g id="Property 1=Default">
        <rect width="66" height="60" rx="10" fill="#312DD6" />
        <g id="Icon">
            <path id="Note"
                d="M35.6834 13.3333H21.5C20.4834 13.3333 19.5083 13.6845 18.7894 14.3096C18.0706 14.9348 17.6667 15.7826 17.6667 16.6667V43.3333C17.6667 44.2174 18.0706 45.0652 18.7894 45.6903C19.5083 46.3155 20.4834 46.6667 21.5 46.6667H44.5C45.5167 46.6667 46.4917 46.3155 47.2106 45.6903C47.9295 45.0652 48.3334 44.2174 48.3334 43.3333V31"
                stroke="#EAEAF6" stroke-width="2" stroke-linecap="round" stroke-linejoin="round" />
            <path id="Pen"
                d="M50.9745 19.3767C51.738 18.7127 52.1669 17.8123 52.1669 16.8733C52.1669 15.9344 51.738 15.0339 50.9745 14.37C50.211 13.7061 49.1754 13.3331 48.0956 13.3331C47.0159 13.3331 45.9803 13.7061 45.2168 14.37L35.6143 22.7233C35.1586 23.1194 34.8251 23.6089 34.6445 24.1467L33.0402 28.93C32.9921 29.0734 32.9892 29.2254 33.0319 29.3702C33.0745 29.5149 33.1611 29.647 33.2826 29.7526C33.4041 29.8582 33.556 29.9335 33.7224 29.9706C33.8888 30.0077 34.0636 30.0052 34.2286 29.9633L39.7294 28.5683C40.3478 28.4113 40.9108 28.1213 41.3662 27.725L50.9745 19.3767Z"
                stroke="white" stroke-width="2" stroke-linecap="round" stroke-linejoin="round" />
        </g>
    </g>
</svg>